<?xml version="1.0" encoding="UTF-8"?>
<svg width="610px" height="610px" viewBox="0 0 610 610" version="1.1" xmlns="http://www.w3.org/2000/svg" xmlns:xlink="http://www.w3.org/1999/xlink">
    <!-- Generator: Sketch 44.1 (41455) - http://www.bohemiancoding.com/sketch -->
    <title>Artboard</title>
    <desc>Created with Sketch.</desc>
    <defs></defs>
    <g id="Page-1" stroke="none" stroke-width="1" fill="none" fill-rule="evenodd">
        <g id="Artboard">
            <circle id="Oval" fill="#D0011B" cx="305" cy="305" r="305"></circle>
            <path d="M195.95,310.7 C194.949995,303.899966 195.199992,297.700028 196.7,292.1 C198.200007,286.499972 200.349986,281.300024 203.15,276.5 C205.950014,271.699976 209.099983,267.30002 212.6,263.3 C216.100018,259.29998 219.449984,255.450018 222.65,251.75 C225.850016,248.049982 228.499989,244.450018 230.6,240.95 C232.700011,237.449983 233.75,233.800019 233.75,230 C233.75,223.799969 231.900018,219.100016 228.2,215.9 C224.499981,212.699984 219.65003,211.1 213.65,211.1 C208.049972,211.1 203.100021,212.399987 198.8,215 C194.499978,217.600013 190.35002,220.89998 186.35,224.9 L162.05,202.7 C168.850034,194.499959 176.849954,187.900025 186.05,182.9 C195.250046,177.899975 205.449944,175.4 216.65,175.4 C225.050042,175.4 232.899963,176.39999 240.2,178.4 C247.500036,180.40001 253.799974,183.499979 259.1,187.7 C264.400027,191.900021 268.549985,197.249967 271.55,203.75 C274.550015,210.250032 276.05,217.899956 276.05,226.7 C276.05,232.900031 274.950011,238.449975 272.75,243.35 C270.549989,248.250024 267.800016,252.799979 264.5,257 C261.199984,261.200021 257.700018,265.24998 254,269.15 C250.299982,273.05002 246.900015,277.099979 243.8,281.3 C240.699984,285.500021 238.250009,289.949977 236.45,294.65 C234.649991,299.350024 234.049997,304.69997 234.65,310.7 L195.95,310.7 Z M188.75,356 C188.75,347.99996 191.249975,341.350027 196.25,336.05 C201.250025,330.749974 207.549962,328.1 215.15,328.1 C222.750038,328.1 229.099975,330.749974 234.2,336.05 C239.300026,341.350027 241.85,347.99996 241.85,356 C241.85,363.800039 239.300026,370.349974 234.2,375.65 C229.099975,380.950027 222.750038,383.6 215.15,383.6 C207.549962,383.6 201.250025,380.950027 196.25,375.65 C191.249975,370.349974 188.75,363.800039 188.75,356 Z M300.35,305.6 C300.35,293.399939 302.099983,282.500048 305.6,272.9 C309.100018,263.299952 313.699972,255.150034 319.4,248.45 C325.100029,241.749967 331.699962,236.600018 339.2,233 C346.700038,229.399982 354.349961,227.6 362.15,227.6 C370.350041,227.6 377.549969,229.049985 383.75,231.95 C389.950031,234.850015 395.949971,239.499968 401.75,245.9 L402.95,245.9 L406.55,231.2 L441.05,231.2 L441.05,435.2 L396.95,435.2 L396.95,389.9 L398.75,367.1 C393.749975,371.900024 387.950033,375.849985 381.35,378.95 C374.749967,382.050015 368.050034,383.6 361.25,383.6 C352.049954,383.6 343.700038,381.800018 336.2,378.2 C328.699962,374.599982 322.300027,369.450034 317,362.75 C311.699973,356.049966 307.600014,347.900048 304.7,338.3 C301.799985,328.699952 300.35,317.800061 300.35,305.6 Z M345.65,305 C345.65,319.800074 347.999977,330.599966 352.7,337.4 C357.400023,344.200034 364.049957,347.6 372.65,347.6 C377.450024,347.6 381.79998,346.60001 385.7,344.6 C389.600019,342.59999 393.349982,339.100025 396.95,334.1 L396.95,273.2 C392.94998,269.599982 388.850021,267.100007 384.65,265.7 C380.449979,264.299993 376.35002,263.6 372.35,263.6 C365.349965,263.6 359.150027,266.949967 353.75,273.65 C348.349973,280.350033 345.65,290.799929 345.65,305 Z" id="?q" fill="#FFFFFF"></path>
        </g>
    </g>
</svg>